<?xml version="1.0" encoding="UTF-8" standalone="no"?>
<!-- Created with Inkscape (http://www.inkscape.org/) -->

<svg
   width="318.69568mm"
   height="186.76384mm"
   viewBox="0 0 318.69568 186.76384"
   version="1.1"
   id="svg1"
   inkscape:version="1.4.2 (ebf0e940, 2025-05-08)"
   sodipodi:docname="Jeddah.svg"
   xmlns:inkscape="http://www.inkscape.org/namespaces/inkscape"
   xmlns:sodipodi="http://sodipodi.sourceforge.net/DTD/sodipodi-0.dtd"
   xmlns="http://www.w3.org/2000/svg"
   xmlns:svg="http://www.w3.org/2000/svg">
  <sodipodi:namedview
     id="namedview1"
     pagecolor="#ffffff"
     bordercolor="#000000"
     borderopacity="0.25"
     inkscape:showpageshadow="2"
     inkscape:pageopacity="0.0"
     inkscape:pagecheckerboard="0"
     inkscape:deskcolor="#d1d1d1"
     inkscape:document-units="mm"
     inkscape:zoom="0.47366247"
     inkscape:cx="294.51352"
     inkscape:cy="486.63345"
     inkscape:window-width="1512"
     inkscape:window-height="836"
     inkscape:window-x="0"
     inkscape:window-y="34"
     inkscape:window-maximized="0"
     inkscape:current-layer="layer1" />
  <defs
     id="defs1" />
  <g
     inkscape:label="Layer 1"
     inkscape:groupmode="layer"
     id="layer1"
     transform="translate(-434.71037,24.870833)">
    <path
       id="path170"
       d="M 637.03563,65.764585 Z M 516.48088,123.19681 c -1.49929,0 -3.47837,0.49388 -5.12937,0.90663 -1.30175,0.32809 -2.43065,0.61031 -3.37256,0.68792 -0.87842,0.0741 -2.77636,0.14111 -4.97417,0.22225 -3.33023,0.12347 -7.89165,0.28928 -9.04523,0.50094 -2.06727,0.37395 -7.3025,1.65806 -9.31334,2.49767 -0.76903,0.3175 -2.46591,0.98778 -4.43441,1.76742 -3.16794,1.25236 -8.47371,3.34786 -9.16869,3.72533 l -0.06,0.0318 c -0.3316,0.17992 -8.20208,4.37797 -15.31054,7.37306 -1.397,0.58914 -2.85046,1.17475 -4.2545,1.73919 -4.81896,1.94381 -10.81616,4.36386 -11.82864,6.05367 -0.77611,1.29116 -1.25236,3.58775 -0.66675,5.48216 0.39158,1.27353 1.18181,2.16959 2.41651,2.73756 3.80297,1.75683 7.23197,1.24883 10.795,-1.59103 1.59105,-1.27 3.68655,-3.90172 5.715,-6.44525 2.63174,-3.30905 5.12234,-6.43114 7.38365,-7.90575 5.71148,-3.71122 10.42459,-5.82436 14.4145,-6.46289 4.79073,-0.76552 10.01535,-0.24341 13.83242,0.14111 l 0.32456,0.0318 c 3.57362,0.35631 8.25852,-0.41275 11.45117,-1.25236 0.30337,-0.0811 0.59619,-0.15875 0.87487,-0.23636 3.16442,-0.85372 5.66563,-1.52753 8.81592,0.7232 1.01248,0.72319 1.85208,1.72508 2.74108,2.78341 1.71098,2.032 3.32317,3.95464 6.02192,3.95464 4.82954,0 14.6685,-3.45722 19.64618,-7.747 3.50309,-3.01978 6.40998,-5.99722 8.53017,-8.17386 1.16771,-1.19591 2.08846,-2.14136 2.83633,-2.82222 2.13432,-1.94028 10.77032,-7.93044 15.23648,-9.55675 0.33867,-0.12347 0.72319,-0.26106 1.143,-0.40922 4.39915,-1.57339 13.55019,-4.8507 17.17675,-8.636 2.08492,-2.17664 4.6214,-5.517446 6.86152,-8.463139 2.3848,-3.136196 4.44148,-5.845527 5.8138,-7.006167 1.76035,-1.488723 9.83543,-7.916333 14.33335,-9.846027 3.86643,-1.654529 13.72306,-4.787196 17.38842,-5.192889 l 0.31398,-0.03528 c 1.68275,-0.186973 3.7747,-0.41628 5.55977,-0.89253 2.35656,-0.63147 2.75518,-1.308804 2.8081,-1.439333 0.36338,-0.843137 0.71966,-2.032 1.10066,-3.291417 0.80434,-2.66347 1.56282,-5.182303 2.87163,-6.487583 0.21519,-0.215194 0.42686,-0.437444 0.64911,-0.66675 1.37935,-1.432277 3.09739,-3.210277 6.68514,-5.259917 0.99129,-0.56797 1.86267,-1.150053 2.70227,-1.714497 2.44475,-1.63689 4.75544,-3.182056 8.19857,-2.836333 1.25587,0.12347 3.16793,0.335137 5.19287,0.560916 3.97581,0.440971 8.92175,0.991304 10.99256,1.114777 0.6844,0.03881 1.54869,0.162277 2.55059,0.306917 4.00401,0.575027 10.70681,1.534583 16.68991,-1.248833 7.53885,-3.50661 15.29292,-8.61836 19.63915,-11.934473 3.6971,-2.815167 13.43729,-12.315471 16.5241,-17.399 3.33727,-5.499804 8.61483,-15.5292767 9.4615,-20.61280358 0.44802,-2.68816662 1.54869,-6.30061092 2.61408,-9.79663862 1.02659,-3.3654998 2.30365,-7.5564998 2.2225,-8.8264998 -0.06,-0.948972 -0.62441,-1.947333 -1.47814,-2.6035 -0.69144,-0.532694 -1.47461,-0.762 -2.14487,-0.627944 -1.7145,0.342194 -5.67267,3.312583 -7.57767,4.741333 -0.76555,0.575028 -1.37232,1.030111 -1.80975,1.319389 -1.4958,0.998361 -16.07608,10.6609441 -18.42207,12.0297218 -2.14489,1.252361 -11.98385,7.7434719 -13.30676,8.6889155 -0.32457,0.2328333 -0.99838,0.6949731 -1.85209,1.2841128 -2.54,1.7497769 -7.26371,5.0023869 -8.45256,6.0607199 -0.70202,0.624417 -2.93865,2.469447 -5.76792,4.808363 -3.9511,3.263194 -8.86883,7.323664 -10.28348,8.628944 -1.94027,1.788583 -13.53254,11.52525 -19.75908,16.753416 -1.69334,1.421694 -2.96334,2.49061 -3.48896,2.93511 -0.44804,0.377474 -1.03364,0.878417 -1.71098,1.453444 -3.08327,2.62114 -7.74348,6.582833 -9.7649,8.138583 -0.22225,0.169334 -0.45508,0.34925 -0.6985,0.532694 -1.19591,0.913696 -4.23333,3.231446 -4.98475,4.321529 0.23284,0.359834 0.77259,0.92075 1.09009,1.248834 0.72673,0.762 1.41465,1.478137 1.71098,2.36361 0.5574,1.675693 0.41981,3.305527 -0.3951,4.58611 -0.94898,1.485196 -2.69172,2.388306 -5.1788,2.674056 -2.21543,0.257527 -4.41325,0.324557 -6.35352,0.384527 -2.22956,0.07056 -4.33565,0.134057 -5.4469,0.47625 -1.25941,0.388057 -5.93725,2.01789 -13.15508,6.688667 -6.2512,4.046363 -15.2047,9.405056 -18.05516,10.625666 -0.53975,0.232834 -1.05834,0.433917 -1.55927,0.631473 -0.87842,0.345721 -2.19075,0.860777 -2.49767,1.199444 -0.0212,0.278694 -0.0177,0.79375 -0.0106,1.3335 0.0212,2.628193 0.0564,7.030862 -2.32127,9.775472 -0.27165,0.31397 -0.52917,0.62089 -0.77965,0.91722 -2.05669,2.44828 -4.0005,4.7625 -9.34156,5.715 -3.54894,0.635 -6.78392,-0.1023 -9.144,-0.64205 -1.21002,-0.27517 -2.45886,-0.56092 -3.05504,-0.4692 -2.21546,0.33867 -5.71148,1.72509 -7.38365,3.24556 -0.51858,0.47272 -1.05481,0.89958 -1.56985,1.30881 -1.56634,1.24883 -2.91396,2.3248 -3.4643,4.30388 -0.30337,1.09009 -0.48329,2.05317 -0.64204,2.90337 -0.34221,1.83091 -0.63854,3.41136 -1.92264,4.69547 -1.74273,1.74272 -12.34017,6.33589 -16.14662,6.73805 -4.37447,0.45861 -7.98338,-1.45697 -9.62025,-3.55953 -0.0953,-0.12347 -0.19757,-0.254 -0.3034,-0.39158 -1.12535,-1.46755 -3.00919,-3.91936 -5.04473,-4.30036 -0.26459,-0.0494 -0.56092,-0.0705 -0.87842,-0.0705 z m -70.8801,38.69619 c -1.94733,0 -3.91935,-0.45861 -5.9196,-1.38289 -2.24722,-1.03364 -3.81707,-2.82222 -4.53673,-5.16114 -0.97367,-3.15736 -0.17286,-6.63575 1.05481,-8.67833 1.69333,-2.82575 7.27779,-5.08 13.74069,-7.68703 1.38993,-0.56092 2.82926,-1.13947 4.20158,-1.71803 6.75568,-2.84691 14.4921,-6.95325 14.95425,-7.20019 0.75848,-0.42334 3.52777,-1.53811 9.6661,-3.9617 1.94733,-0.77258 3.63008,-1.4358 4.36388,-1.74272 2.51529,-1.04775 8.24087,-2.39183 10.12825,-2.73755 1.32644,-0.23989 4.81894,-0.38453 9.60612,-0.55739 2.05671,-0.0776 4.00405,-0.14817 4.79073,-0.2152 0.62442,-0.0494 1.651,-0.30691 2.74108,-0.58208 2.49415,-0.62442 5.32342,-1.32997 7.69761,-0.88547 3.51721,0.65969 5.97958,3.86291 7.44714,5.77497 0.10232,0.13053 0.20109,0.25753 0.29282,0.37747 0.7761,0.99836 3.04093,2.37067 6.08542,2.04964 3.17145,-0.33161 12.6506,-4.6108 13.77947,-5.61622 0.38454,-0.38453 0.54681,-1.16064 0.81492,-2.61056 0.16581,-0.88194 0.37041,-1.97908 0.71966,-3.23497 0.89255,-3.2138 2.97392,-4.87186 4.80838,-6.33589 0.49035,-0.38805 0.9525,-0.75847 1.37583,-1.143 2.38829,-2.16958 6.64634,-3.79941 9.44386,-4.2298 1.34056,-0.20461 2.81868,0.13405 4.53318,0.52211 2.25425,0.51505 4.8119,1.10066 7.57063,0.60678 3.92994,-0.70203 5.09058,-2.08139 7.00969,-4.36739 0.26458,-0.31045 0.53268,-0.635 0.81843,-0.96309 1.40055,-1.615719 1.37232,-5.083523 1.35467,-7.154329 -0.003,-0.769056 -0.0106,-1.375833 0.0459,-1.866194 0.2822,-2.536473 2.667,-3.47486 4.97416,-4.377973 0.47271,-0.18697 0.95954,-0.37747 1.44638,-0.58561 2.32481,-0.994833 10.81264,-6.007806 17.46604,-10.311693 7.64469,-4.945946 12.75644,-6.720417 14.13933,-7.14728 1.61925,-0.497416 3.8735,-0.56797 6.48404,-0.64911 1.86267,-0.05644 3.9723,-0.123473 6.02192,-0.359833 1.74625,-0.201084 2.20133,-0.719667 2.30013,-0.871361 0.20812,-0.331612 0.0847,-0.878416 0,-1.153583 -0.13055,-0.201083 -0.55034,-0.638529 -0.83609,-0.934863 -1.016,-1.058333 -2.27896,-2.374193 -2.27896,-4.049887 0,-2.183696 2.50473,-4.250973 6.62871,-7.39775 0.23987,-0.183443 0.46919,-0.359833 0.68792,-0.525639 1.94379,-1.495777 6.7451,-5.577417 9.61319,-8.018637 0.68085,-0.57503 1.27,-1.0795 1.71801,-1.4605 0.52917,-0.4445 1.80272,-1.513417 3.49957,-2.942167 5.76085,-4.836583 17.75177,-14.904863 19.6215,-16.629946 1.49577,-1.37936 6.25123,-5.309304 10.44575,-8.773581 2.57881,-2.12725 5.00943,-4.138083 5.65856,-4.713112 1.26646,-1.1253607 5.06235,-3.7606106 8.83709,-6.3641106 0.83608,-0.5750269 1.49928,-1.0336398 1.79916,-1.2453064 1.25942,-0.8995834 11.24654,-7.5071099 13.61369,-8.8864712 2.0955,-1.2241387 16.04433,-10.4492768 18.22098,-11.9027218 0.34218,-0.229305 0.93837,-0.677333 1.62983,-1.192389 3.46779,-2.603499 6.78037,-4.977694 9.17575,-5.457472 1.78859,-0.356305 3.72885,0.141111 5.32694,1.372306 1.75683,1.351139 2.88218,3.404305 3.01273,5.489222 0.11993,1.887361 -0.82905,5.115277 -2.3848,10.2270272 -1.0301,3.3725556 -2.09195,6.86152756 -2.49766,9.2921654 -1.01246,6.0748333 -6.97087,17.0568064 -9.98361,22.0133334 -3.3655,5.545666 -13.50433,15.448139 -17.50483,18.496139 -4.50498,3.432527 -12.54125,8.73125 -20.36585,12.371917 -7.0485,3.277304 -14.478,2.211914 -18.91596,1.576914 -0.91721,-0.130527 -1.70744,-0.243417 -2.22602,-0.275167 -2.16958,-0.127 -6.96735,-0.659693 -11.19717,-1.128887 -2.01083,-0.225777 -3.91583,-0.437444 -5.15056,-0.560917 -1.94379,-0.194027 -3.25612,0.617361 -5.6021,2.19075 -0.85725,0.575027 -1.83092,1.224137 -2.94217,1.859137 -3.0974,1.770947 -4.53319,3.259667 -5.79967,4.57553 -0.2399,0.246943 -0.46918,0.486833 -0.70202,0.716137 -0.60325,0.60325 -1.37231,3.150306 -1.88031,4.836583 -0.41275,1.36878 -0.80433,2.659946 -1.25235,3.704167 -1.54165,3.598333 -7.33425,4.236863 -11.56759,4.702529 l -0.31398,0.03528 c -3.08681,0.342194 -12.32958,3.213807 -16.26306,4.900084 -3.4431,1.47461 -10.49867,6.826249 -13.33852,9.228666 -1.04069,0.881944 -3.16442,3.675944 -5.2211,6.38175 -2.30365,3.030353 -4.91421,6.466413 -7.15434,8.808853 -4.27214,4.45559 -13.65604,7.81403 -18.69723,9.62025 -0.41275,0.14817 -0.79023,0.28223 -1.12535,0.40217 -3.89821,1.41817 -12.06854,7.07672 -13.92767,8.76653 -0.65971,0.59972 -1.59104,1.55222 -2.667,2.65641 -2.16958,2.22603 -5.1435,5.27756 -8.77712,8.41023 -5.7785,4.98122 -16.50294,8.70302 -22.22852,8.70302 -4.54025,0 -7.14375,-3.10091 -9.04875,-5.36575 -0.72319,-0.86077 -1.40404,-1.67216 -2.01084,-2.10608 -1.56633,-1.11831 -2.43062,-0.94897 -5.4892,-0.12347 -0.2893,0.0776 -0.58563,0.15875 -0.89606,0.23989 -1.7145,0.45155 -7.69761,1.8803 -12.85524,1.36525 l -0.32453,-0.0318 c -3.59834,-0.36336 -8.52665,-0.85725 -12.8129,-0.17286 -3.38315,0.54327 -7.71877,2.51883 -12.88344,5.87727 -1.72508,1.12184 -4.1275,4.13456 -6.44879,7.05203 -2.26129,2.83986 -4.39912,5.5245 -6.33942,7.06967 -2.90335,2.31775 -5.91254,3.47486 -8.99935,3.47486"
       style="fill:#100f0d;fill-opacity:1;fill-rule:nonzero;stroke:none;stroke-width:0.0352777" />
  </g>
</svg>
