<?xml version="1.0" encoding="UTF-8" standalone="no"?>
<!-- Created with Inkscape (http://www.inkscape.org/) -->

<svg
   width="219.24597mm"
   height="188.0041mm"
   viewBox="0 0 219.24597 188.0041"
   version="1.1"
   id="svg1"
   inkscape:version="1.4.2 (ebf0e940, 2025-05-08)"
   sodipodi:docname="Zandvoort.svg"
   xmlns:inkscape="http://www.inkscape.org/namespaces/inkscape"
   xmlns:sodipodi="http://sodipodi.sourceforge.net/DTD/sodipodi-0.dtd"
   xmlns="http://www.w3.org/2000/svg"
   xmlns:svg="http://www.w3.org/2000/svg">
  <sodipodi:namedview
     id="namedview1"
     pagecolor="#ffffff"
     bordercolor="#000000"
     borderopacity="0.25"
     inkscape:showpageshadow="2"
     inkscape:pageopacity="0.0"
     inkscape:pagecheckerboard="0"
     inkscape:deskcolor="#d1d1d1"
     inkscape:document-units="mm"
     inkscape:zoom="0.29866121"
     inkscape:cx="436.94995"
     inkscape:cy="189.17757"
     inkscape:window-width="1512"
     inkscape:window-height="836"
     inkscape:window-x="0"
     inkscape:window-y="34"
     inkscape:window-maximized="0"
     inkscape:current-layer="layer1" />
  <defs
     id="defs1" />
  <g
     inkscape:label="Layer 1"
     inkscape:groupmode="layer"
     id="layer1"
     transform="translate(132.55625,93.927064)">
    <path
       id="path112"
       d="m 11.332706,80.967812 -0.02117,0.211667 c -0.194019,1.869731 -0.486834,4.691962 2.176647,7.073212 3.213815,2.878666 7.323667,1.622769 7.77875,1.467538 0.917231,-0.303372 2.836334,-2.155455 3.644186,-4.2545 0.910167,-2.367122 2.804583,-7.119038 3.58775,-8.882936 C 29.109183,75.20696 51.0061,21.112025 62.499599,-7.2971869 l 17.215565,-42.8448521 0.01402,-0.03527 c 0.836084,-1.87325 3.005667,-7.390712 3.005667,-10.41048 0,-4.067519 -1.118314,-10.290519 -1.55575,-11.458231 -0.726731,-1.93675 -4.448519,-9.74725 -9.426231,-12.632955 -5.655019,-3.287897 -9.436788,-4.98475 -14.403916,-5.157628 -5.291667,-0.183436 -14.231038,-0.183436 -16.495871,-0.0034 -3.993462,0.3175 -8.646584,1.5875 -9.821334,3.400769 -1.650999,2.550583 -2.487083,4.706064 -2.487083,6.406462 0,1.538102 1.749769,11.581685 2.194269,13.592519 0.381,1.707435 2.543519,14.146397 2.63525,14.672018 0.02461,0.130546 2.804583,15.130648 3.171481,16.965084 0.08819,0.4445 2.173102,10.914961 1.880288,12.678833 -0.257519,1.552231 -2.236602,6.466416 -5.997205,7.718795 -4.723712,1.573371 -8.847666,0.73025 -11.320647,-2.310712 -1.068917,-1.315852 -1.845019,-2.69875 -2.525898,-3.919352 -0.451538,-0.811398 -1.058333,-1.894417 -1.432269,-2.243667 -1.030102,0.271648 -3.901731,2.00025 -6.409981,3.880564 l -0.15875,0.119936 -0.183435,0.08467 c -0.716148,0.338666 -17.6071478,8.3185 -24.232314,10.2093973 -1.086538,0.3104356 -2.356538,0.6914356 -3.827622,1.1324166 -7.369545,2.2083713 -18.50673,5.5491856 -29.55573,6.96735223 -6.706288,0.86431437 -29.513371,3.47485227 -41.423166,0.9066477 -9.486186,-2.04612873 -15.208257,-3.28083333 -15.208257,-12.02621183 0,-4.141602 1.524,-7.612936 4.529673,-10.325788 2.899834,-2.614083 7.122584,-4.515564 12.904629,-5.813795 5.422186,-1.213538 9.592019,-1.919102 12.6365,-2.434167 2.649352,-0.448019 4.741333,-0.804333 5.422185,-1.143 5.161148,-2.582333 8.628936,-5.700871 8.628936,-7.768166 0,-3.062103 -6.477,-8.374936 -8.628936,-9.450917 l -0.419814,-0.208121 c -10.946685,-5.545667 -16.647583,-6.798046 -19.501538,-6.872129 -0.79375,-0.02117 -1.566333,-0.04937 -2.314231,-0.07408 -5.027083,-0.165788 -9.373314,-0.306917 -10.586854,1.4605 -1.90855,2.772833 -6.71338,12.879916 -6.93915,13.356166 -0.72319,1.608667 -4.26156,9.42975 -5.45042,11.013731 -0.56091,0.751417 -2.38831,3.390186 -4.15218,5.944314 -1.71098,2.472955 -3.32671,4.808353 -4.05696,5.81025 -1.71802,2.367122 -5.09059,7.567084 -5.69029,9.5144169 -0.65971,2.1448713 -1.39348,7.65174995 -1.0513,10.3928332 0.26813,2.130769 4.17338,14.1816669 15.0495,16.2524549 11.44059,2.176647 25.82334,2.021416 25.964469,2.021416 l 0.116416,-0.0034 0.116417,0.01402 c 0.134038,0.01402 13.853583,1.305295 25.054269,-6.219455 11.733397,-7.8845832 17.233185,-10.5551286 22.630685,-10.9854999 5.009462,-0.4021666 18.623147,1.3229167 24.754416,2.8575 5.8525836,1.4640189 15.72683349,2.3353712 18.1433524,2.0143523 2.413,-0.321019 21.2583976,-4.0110833 29.7285826,-7.8775189 3.834712,-1.7497954 7.327212,-1.996731 10.385796,-0.7337954 3.199685,1.32291665 4.914185,3.9828787 5.372788,5.203481 0.885481,2.3600833 1.086564,9.4720829 -3.700622,11.4864359 -1.016,0.426878 -2.532962,1.037166 -4.28625,1.739212 -3.979333,1.591019 -9.990666,3.996954 -11.313583,4.840102 l -0.218731,0.137583 c -1.880314,1.192398 -4.720166,2.995083 -4.850685,5.584481 -0.09173,1.87325 -0.03881,5.005917 0.0071,7.771686 0.05292,3.093852 0.08115,5.051769 -0.01402,5.958416 -0.06702,0.903103 -0.617352,7.637648 -1.601602,10.392833 -0.254,0.712603 -0.596212,1.735667 -0.994833,2.913936 -1.061879,3.164417 -2.384796,7.101417 -3.376083,9.221629 -3.922898,8.406685 -6.910917,15.370518 -7.115546,16.580537 z m 7.309565,13.109231 c -2.557648,0 -5.415148,-0.754936 -7.789334,-2.878667 C 6.6866231,87.469524 7.1699374,82.777562 7.3780852,80.773793 l 0.021167,-0.218731 C 7.5086041,79.486145 8.8879564,75.52446 14.86754,62.715108 c 0.896064,-1.919129 2.233083,-5.898462 3.210295,-8.808879 0.402167,-1.199436 0.751417,-2.233083 1.019519,-2.9845 0.691436,-1.940269 1.234731,-7.440083 1.386417,-9.394454 l 0.0071,-0.06705 c 0.07408,-0.684371 0.03175,-3.2385 -0.0071,-5.49275 -0.0494,-2.82575 -0.102315,-6.028954 -0.0034,-8.036269 0.232833,-4.6355 4.427352,-7.295435 6.681602,-8.724185 l 0.215186,-0.137583 c 1.513417,-0.963084 6.110129,-2.829296 11.962712,-5.17525 1.739185,-0.694981 3.242019,-1.294712 4.22275,-1.707462 C 45.654535,11.304794 45.4711,6.732794 45.097164,5.7273773 44.941933,5.3216917 43.957683,3.6353963 41.9151,2.7887297 39.911331,1.9632297 37.477164,2.1890251 34.679619,3.466063 25.676748,7.5759417 6.4256645,11.322442 3.8327479,11.668146 0.70008128,12.084442 -9.5728163,11.121358 -15.792297,9.5691273 c -5.665602,-1.4181666 -19.00764,-3.1115 -23.480871,-2.7516666 -3.954648,0.313981 -8.431398,2.0566856 -20.739814,10.3258143 -11.96975,8.043333 -25.999705,7.023788 -27.548417,6.882685 -1.471083,0.01402 -15.215291,0.08467 -26.648831,-2.0955 -12.32958,-2.345981 -17.67769,-15.2188327 -18.22802,-19.6426659 -0.43744,-3.488981 0.42685,-9.5602689 1.1924,-12.0438332 0.91016,-2.9527499 5.17877,-9.1722309 6.27237,-10.6785829 0.70204,-0.963084 2.37773,-3.386667 4.0005,-5.732648 1.86973,-2.702269 3.63715,-5.256371 4.24392,-6.067769 0.62089,-0.8255 3.03389,-5.877269 5.01298,-10.279935 l 0.0177,-0.03881 c 0.20812,-0.440981 5.13996,-10.833814 7.26017,-13.920602 2.4412,-3.548962 7.531788,-3.383147 13.977037,-3.167962 0.740834,0.02461 1.502834,0.0494 2.286,0.07057 4.744879,0.123481 11.870981,2.578814 21.187833,7.295435 l 0.398648,0.201083 c 1.093602,0.550334 3.697102,2.345981 6.053667,4.624917 3.157352,3.058583 4.758981,5.87375 4.758981,8.360833 0,5.129398 -6.773334,9.285129 -10.812648,11.303 -1.2065,0.60325 -3.097397,0.924295 -6.529916,1.502833 -3.002148,0.508 -7.112,1.2065 -12.431898,2.398898 -12.85875,2.882186 -14.347454,8.389064 -14.347454,12.280186 0,5.3516472 2.310685,6.0536661 12.089685,8.1632948 8.974667,1.93675 26.592397,0.7725834 40.086147,-0.9630833 10.727955,-1.3793787 21.678186,-4.660212 28.924223,-6.8333145 1.485213,-0.4445 2.765796,-0.829019 3.877046,-1.146519 5.9654544,-1.703916 21.6041019,-9.027583 23.4526662,-9.898962 2.9915378,-2.229538 6.9320828,-4.776602 9.0699168,-4.564935 2.155454,0.218731 3.259666,2.194269 4.430871,4.282731 0.60325,1.083019 1.287648,2.303621 2.141379,3.358435 1.887352,2.31775 5.196416,1.654519 7.002621,1.051269 1.696879,-0.564435 3.136212,-3.58775 3.337295,-4.557871 0.01058,-1.224148 -1.195916,-8.068045 -1.845045,-11.313583 -0.373936,-1.862667 -3.069167,-16.421814 -3.182038,-17.042712 -0.779648,-4.466167 -2.31775,-13.218583 -2.6035,-14.513269 -0.324564,-1.456981 -2.293064,-12.290769 -2.293064,-14.449769 0,-2.508249 1.023064,-5.305795 3.122083,-8.551333 2.642314,-4.085166 10.488083,-5.009462 12.827,-5.196416 2.416519,-0.194046 11.444102,-0.194046 16.943916,-0.0071 5.774981,0.201083 10.167064,2.151935 16.256,5.690314 7.01675,4.071038 11.101917,14.555602 11.140731,14.661436 0.680852,1.816814 1.80975,8.5725 1.80975,12.848166 0,4.346231 -2.924545,11.066648 -3.337295,11.987398 L 66.16866,-5.8226375 c -1.361731,3.3655 -33.302231,82.3171655 -34.057166,84.0104985 -0.73025,1.647455 -2.607046,6.339417 -3.513667,8.695955 -1.125379,2.935129 -3.799417,5.827898 -6.078379,6.586379 -1.104185,0.366871 -2.441204,0.606769 -3.877019,0.606769"
       style="fill:#100f0d;fill-opacity:1;fill-rule:nonzero;stroke:none;stroke-width:0.0352777" />
  </g>
</svg>
