<?xml version="1.0" encoding="UTF-8" standalone="no"?>
<!-- Created with Inkscape (http://www.inkscape.org/) -->

<svg
   width="207.99884mm"
   height="150.36987mm"
   viewBox="0 0 207.99884 150.36987"
   version="1.1"
   id="svg1"
   inkscape:version="1.4.2 (ebf0e940, 2025-05-08)"
   sodipodi:docname="drawing.svg"
   xmlns:inkscape="http://www.inkscape.org/namespaces/inkscape"
   xmlns:sodipodi="http://sodipodi.sourceforge.net/DTD/sodipodi-0.dtd"
   xmlns="http://www.w3.org/2000/svg"
   xmlns:svg="http://www.w3.org/2000/svg">
  <sodipodi:namedview
     id="namedview1"
     pagecolor="#ffffff"
     bordercolor="#000000"
     borderopacity="0.25"
     inkscape:showpageshadow="2"
     inkscape:pageopacity="0.0"
     inkscape:pagecheckerboard="0"
     inkscape:deskcolor="#d1d1d1"
     inkscape:document-units="mm"
     inkscape:zoom="0.46334472"
     inkscape:cx="629.12123"
     inkscape:cy="529.8431"
     inkscape:window-width="1512"
     inkscape:window-height="836"
     inkscape:window-x="0"
     inkscape:window-y="34"
     inkscape:window-maximized="0"
     inkscape:current-layer="layer1" />
  <defs
     id="defs1" />
  <g
     inkscape:label="Layer 1"
     inkscape:groupmode="layer"
     id="layer1"
     transform="translate(149.75421,-96.043762)">
    <path
       id="path82"
       d="m -122.48307,242.16616 165.540977,0.29633 c 2.741083,-0.007 8.734768,-0.89252 9.719018,-3.59833 1.693334,-4.65667 1.926167,-6.76979 0.924269,-8.37494 -1.425204,-2.27893 -27.001602,-39.72277 -27.989371,-41.16916 -1.231212,-1.62277 -6.921499,-9.37684 -6.755712,-13.40909 0.169334,-4.02873 5.284629,-9.90248 6.4135,-11.15131 l 22.013333,-27.18858 c 0.945462,-1.51694 1.665129,-3.48544 1.49225,-4.09221 -0.497416,-1.70746 -8.28675,-16.002 -8.999352,-17.19791 -0.07056,-0.1129 -0.208148,-0.35984 -0.402166,-0.70557 -3.199686,-5.72558 -4.325065,-6.94618 -4.674315,-7.20373 -1.583954,-0.86429 -2.998602,-1.524 -5.404538,-1.524 -0.437462,0 -1.153583,-0.007 -2.060231,-0.0212 -13.497268,-0.17991 -17.3778328,0.27517 -18.2562494,0.68792 -2.5752689,1.36173 -5.2810833,3.72181 -5.616231,4.4803 l -0.3951023,0.98425 c -0.8008143,1.9967 -2.47298097,6.15243 -2.82926889,7.21783 -0.19049999,0.5715 -0.59266666,1.56279 -1.10066665,2.81517 -0.73731436,1.82033 -1.65454536,4.08868 -1.99321206,5.26695 -0.3668712,1.29117 -1.6016023,4.46971 -3.175,8.49138 -0.6702689,1.70392 -1.3017499,3.3161 -1.4499166,3.76767 -0.3069167,0.91368 -1.3722879,3.10443 -2.8469171,6.096 -0.557371,1.12887 -1.083018,2.19426 -1.220602,2.51883 -0.567981,1.32292 -5.295185,9.40152 -10.512769,13.67012 -0.508,0.41275 -0.994833,0.81492 -1.464045,1.19946 -4.233333,3.47485 -7.030852,5.77144 -9.782519,7.07319 -2.141352,1.016 -11.691064,5.05177 -14.989519,5.23523 -5.115295,0.28575 -8.706564,-1.05833 -10.660962,-3.99346 -2.31775,-3.47837 -0.751416,-8.94292 0.08821,-11.88154 0.09877,-0.33515 0.179917,-0.61738 0.232834,-0.82905 0.179916,-0.73025 0.779621,-2.68462 1.534583,-5.16112 0.92075,-3.00921 2.458852,-8.04333 2.575269,-8.84766 0.04233,-0.37397 0.137583,-0.82905 0.261064,-1.41113 0.275167,-1.31234 0.846667,-4.03929 0.257519,-5.14702 -0.963083,-1.80269 -2.144897,-2.78342 -3.77825,-4.14515 l -0.197564,-0.16579 c -1.675686,-1.39348 -10.06475,-9.82133 -12.66825,-14.86606 -2.59289,-5.02357 -3.76764,-10.13532 -3.92639,-12.34369 -0.116417,-1.62631 -0.79375,-6.95679 -4.631981,-7.38364 -2.744602,-0.303403 -7.545916,-0.426857 -8.851185,2.18723 -1.195917,2.38828 -2.120212,7.47183 -2.472981,11.17951 -0.292815,3.07624 -2.681103,23.44209 -2.822231,24.66269 -1.23825,13.89592 -2.12725,15.0848 -2.465917,15.53281 -1.372288,1.83444 -3.464269,2.98802 -5.732622,3.1609 -2.27896,0.17637 -5.53156,-0.17991 -7.48948,-5.2705 -1.48518,-3.85233 -8.91823,-25.86566 -9.23573,-26.80054 l -0.0564,-0.20812 c -0.0177,-0.0811 -1.95086,-8.4314 -7.20725,-9.11932 -0.94899,0.16933 -4.22275,0.77965 -5.97607,1.36525 -3.47837,1.1571 -10.3646,3.58775 -11.48995,4.18042 -0.48684,0.41275 -3.09034,2.75518 -2.76225,5.59506 0.39862,3.45721 4.67077,15.70212 5.97252,19.12054 0.59266,1.55575 2.34598,6.57225 4.2051,11.88508 1.83798,5.24934 3.73591,10.67859 4.25098,12.00857 0.2399,0.61031 0.51152,1.4605 0.86077,2.53648 0.99131,3.08327 3.05506,9.50029 5.04121,10.76325 1.98612,1.26645 9.98712,5.43277 15.27879,8.1915 4.54731,2.37066 6.04663,3.15735 6.43466,3.41487 l 0.0529,0.0353 c 4.406211,2.92804 6.699249,6.49817 6.462896,10.05417 -0.28575,4.30742 -1.217083,7.61294 -4.829516,9.73667 -1.41817,0.83608 -3.75356,2.0602 -5.8138,3.1397 -1.64393,0.8608 -3.19616,1.67217 -3.82058,2.04965 -0.45508,0.27165 -1.63687,0.9031 -3.27377,1.778 -3.42548,1.83092 -10.55865,5.6374 -11.89918,6.78744 -1.69334,1.44991 -2.87515,3.45723 -2.87515,4.88246 v 0.28575 c -0.0282,3.79587 0.8114,7.81402 7.24252,8.87587 z m 165.537431,4.24746 -165.851391,-0.29633 -0.15171,-0.0212 c -4.56142,-0.71615 -7.73287,-2.7799 -9.41917,-6.13833 -1.34053,-2.66348 -1.31937,-5.38692 -1.30878,-6.69925 v -0.254 c 0,-2.61409 1.62983,-5.63388 4.2545,-7.88459 1.5381,-1.31939 6.84387,-4.19454 12.61178,-7.27429 1.46405,-0.78317 2.7305,-1.45696 3.0974,-1.67921 0.72319,-0.43391 2.25073,-1.23473 4.02167,-2.16254 2.02142,-1.05833 4.31093,-2.25777 5.64443,-3.04094 1.65455,-0.97366 2.6035,-2.31423 2.88925,-6.59693 0.14113,-2.07788 -1.53103,-4.38857 -4.70958,-6.49817 l -0.0564,-0.0388 c -0.36336,-0.22577 -3.26319,-1.73567 -6.06777,-3.19617 -5.99017,-3.12208 -13.44438,-7.00617 -15.57515,-8.36083 -2.94217,-1.87677 -4.8401,-7.16844 -6.6816,-12.8905 -0.31398,-0.97367 -0.58563,-1.81327 -0.77965,-2.31423 -0.53975,-1.39346 -2.36715,-6.61104 -4.30035,-12.13554 -1.76742,-5.0518 -3.59482,-10.27642 -4.16632,-11.7828 -0.73025,-1.9191 -5.69383,-15.65275 -6.20535,-20.07658 -0.58915,-5.12585 3.79235,-8.7912 4.29329,-9.19337 1.13948,-0.91371 9.95891,-3.89467 12.6365,-4.78367 2.34246,-0.78316 6.63929,-1.52754 6.82273,-1.55929 l 0.25048,-0.0423 0.25045,0.0212 c 7.97984,0.67733 10.6398,10.85146 10.94317,12.11792 0.53623,1.59456 7.73996,22.90233 9.144,26.55713 1.1289,2.93158 2.33188,2.83633 3.49957,2.74812 1.47814,-0.11287 2.391828,-0.99129 2.783412,-1.47109 0.469185,-1.3335 1.284102,-8.03627 1.785064,-13.65953 l 0.0034,-0.0565 c 0.02461,-0.21518 2.525897,-21.5406 2.818685,-24.6027 0.08115,-0.86432 0.860796,-8.55133 2.871629,-12.573 1.245288,-2.497667 4.483788,-5.274046 12.823454,-4.349751 6.875648,0.765519 7.965731,8.636001 8.138584,11.031351 0.137583,1.94733 1.315852,6.5899 3.496018,10.81265 2.208398,4.27918 9.997731,12.23785 11.684,13.64192 l 0.197565,0.16578 c 1.753314,1.4605 3.407833,2.83634 4.734269,5.32342 1.266481,2.37067 0.578564,5.64798 0.123481,7.81756 -0.08819,0.41982 -0.176398,0.85374 -0.201084,1.05127 -0.09525,0.86784 -0.878416,3.5278 -2.719916,9.54972 -0.680853,2.22953 -1.326436,4.33562 -1.481667,4.96358 -0.0635,0.24693 -0.155231,0.57502 -0.268102,0.96308 -0.518584,1.81679 -1.901481,6.64279 -0.599731,8.59719 1.143,1.7145 3.481916,2.44827 7.154333,2.24366 2.091981,-0.11641 10.237602,-3.30906 13.518435,-4.86126 2.307167,-1.09363 4.956546,-3.26674 8.964084,-6.55815 0.472731,-0.38807 0.959564,-0.79023 1.467564,-1.20298 4.504981,-3.68652 8.946435,-11.17246 9.383898,-12.16729 0.172852,-0.40217 0.585602,-1.24883 1.308787,-2.70933 0.896065,-1.82034 2.398898,-4.87188 2.642315,-5.59859 0.172852,-0.52213 0.663231,-1.78154 1.5169354,-3.96171 1.1465454,-2.921 2.7128787,-6.9215 3.0585833,-8.13152 0.3951288,-1.3829 1.3158787,-3.65831 2.1307954,-5.66915 0.4445,-1.0936 0.8607689,-2.12725 1.0124546,-2.57878 0.3633787,-1.09009 1.6933333,-4.41325 2.91396202,-7.44363 l 0.39158332,-0.98071 c 0.88899999,-2.2225 4.96710226,-5.19641 7.44360216,-6.50523 1.8979356,-1.00541 7.3589358,-1.31585 20.1506668,-1.143 0.885481,0.0106 1.580435,0.0212 2.007314,0.0212 3.340788,0 5.453936,0.99835 7.330704,2.02141 1.368796,0.7479 3.107981,3.19617 6.201834,8.73125 0.162295,0.29282 0.278712,0.50449 0.335147,0.59974 0.08115,0.13403 8.6995,15.6492 9.412103,18.14335 0.779647,2.72343 -1.347603,6.35 -2.017872,7.39775 l -0.127,0.17991 -22.15798,27.36144 -0.03881,0.0388 c -2.204852,2.43417 -5.344583,6.74511 -5.425704,8.70302 -0.07408,1.76038 3.048,7.02734 5.983102,10.90084 l 0.05644,0.0776 c 1.086564,1.59101 26.617083,38.96076 28.105814,41.34553 1.975564,3.1609 1.291166,6.72396 -0.560917,11.81807 -2.19075,6.02543 -12.294314,6.19831 -13.437314,6.19831"
       style="fill:#100f0d;fill-opacity:1;fill-rule:nonzero;stroke:none;stroke-width:0.0352777" />
  </g>
</svg>
