<?xml version="1.0" encoding="UTF-8" standalone="no"?>
<!-- Created with Inkscape (http://www.inkscape.org/) -->

<svg
   width="219.8871mm"
   height="124.1629mm"
   viewBox="0 0 219.8871 124.1629"
   version="1.1"
   id="svg1"
   inkscape:version="1.4.2 (ebf0e940, 2025-05-08)"
   sodipodi:docname="Imola.svg"
   xmlns:inkscape="http://www.inkscape.org/namespaces/inkscape"
   xmlns:sodipodi="http://sodipodi.sourceforge.net/DTD/sodipodi-0.dtd"
   xmlns="http://www.w3.org/2000/svg"
   xmlns:svg="http://www.w3.org/2000/svg">
  <sodipodi:namedview
     id="namedview1"
     pagecolor="#ffffff"
     bordercolor="#000000"
     borderopacity="0.25"
     inkscape:showpageshadow="2"
     inkscape:pageopacity="0.0"
     inkscape:pagecheckerboard="0"
     inkscape:deskcolor="#d1d1d1"
     inkscape:document-units="mm"
     inkscape:zoom="0.24066208"
     inkscape:cx="-251.38983"
     inkscape:cy="978.55051"
     inkscape:window-width="1512"
     inkscape:window-height="836"
     inkscape:window-x="0"
     inkscape:window-y="34"
     inkscape:window-maximized="0"
     inkscape:current-layer="layer1" />
  <defs
     id="defs1" />
  <g
     inkscape:label="Layer 1"
     inkscape:groupmode="layer"
     id="layer1"
     transform="translate(-392.6417,1078.7058)">
    <path
       id="path130"
       d="m 537.51517,-1015.7435 z m -121.46491,30.19776 z m 75.28983,-78.35196 c -0.93485,0 -1.84502,0.028 -2.71285,0.099 -7.62707,0.5927 -17.40255,1.9156 -17.50132,1.9297 -0.127,0.018 -13.15156,1.8098 -17.94581,3.8664 l -0.17637,0.074 -0.18698,0.042 c -0.73377,0.1658 -2.36009,0.8255 -2.6529,1.7921 -0.2822,0.9489 -0.37394,1.8485 -0.45154,2.6388 -0.12348,1.2241 -0.2399,2.3741 -1.03365,3.302 -1.143,1.337 -6.67808,4.4167 -6.73451,4.4485 -0.26459,0.1481 -0.59974,0.2857 -1.10422,0.4974 -1.87325,0.7832 -6.84387,2.8575 -7.3801,6.0043 l -0.0282,0.1693 -0.0599,0.1623 -15.113,42.17454 -0.0776,0.14113 c -0.35983,0.65262 -0.84314,1.94733 -0.74438,2.64583 0.0847,0.59619 0.57505,2.24013 1.00542,3.68652 1.03365,3.47134 1.41465,4.87186 1.30882,5.79967 -0.10232,0.9384 -0.15524,1.4111 -10.55865,11.10898 -4.88596,4.55787 -9.82485,9.03817 -9.87425,9.08402 l -0.10935,0.0917 c -2.19782,1.71802 -2.91748,3.58421 -2.49767,4.54025 0.43392,0.97719 2.2366,1.3476 4.58965,0.94192 0.1411,-0.0212 12.68587,-2.07434 16.2842,-2.67407 0.70908,-0.11641 1.79565,-0.31043 3.11502,-0.54327 5.60565,-0.99483 14.98955,-2.65996 18.65138,-2.75873 3.34785,-0.0953 11.42293,0.97719 16.76045,1.68627 1.8768,0.24696 3.35492,0.4445 4.00757,0.50448 0.35983,0.0353 0.75141,0.0847 1.16416,0.13407 2.00025,0.24693 4.73782,0.58208 5.6374,-0.73732 1.74271,-2.55058 4.61434,-8.25148 5.15054,-11.3665 0.53271,-3.08327 0.9525,-6.72041 0.0317,-10.31168 -0.23987,-0.94192 -0.70908,-2.61763 -1.25235,-4.5579 -2.85044,-10.1459 -4.08869,-14.95071 -3.89467,-16.60171 0.23635,-2.0179 2.99157,-6.5758 3.5419,-7.4718 3.73237,-6.0537 5.11879,-6.0537 5.95135,-6.0537 1.25235,0 2.86102,0.6315 4.99533,1.5276 0.60325,0.254 1.42524,0.5961 1.7145,0.6738 0.72674,0.042 4.85069,-0.1553 8.47019,-0.3775 h 0.0423 l 38.68209,-1.5769 c 5.68679,-0.5645 6.61812,0.3069 7.12964,1.33 0.10936,0.2222 0.21873,0.4832 0.33867,0.7866 0.0988,0.2399 0.27869,0.6844 0.45508,1.0478 2.06023,-0.7832 7.09436,-3.0551 9.70844,-4.2369 1.35115,-0.6103 2.51883,-1.1359 3.21733,-1.4393 3.07975,-1.3406 8.18798,-3.7571 9.77196,-4.8119 1.84854,-1.2347 9.09109,-6.9744 10.45634,-8.4455 0.4445,-0.4798 1.30527,-1.3935 2.34243,-2.4941 2.55765,-2.72 6.42409,-6.8263 7.44361,-8.0151 0.067,-0.078 7.15081,-8.0857 9.17574,-9.1899 1.26649,-0.6915 9.99067,-5.0095 11.99447,-5.8102 2.1237,-0.8503 5.21052,-2.2473 5.82083,-2.6318 0.067,-0.085 0.56795,-0.7196 0.26104,-1.4322 -0.10229,-0.2435 -0.23284,-0.5821 -0.40921,-1.0443 -0.55739,-1.4499 -1.5875,-4.1451 -2.82929,-6.3006 -1.59809,-2.7869 -2.50471,-2.8998 -2.52235,-2.8998 v 0 c -2.63525,0.4233 -7.65175,2.7058 -10.34699,3.9299 -0.92075,0.4163 -1.64745,0.7479 -2.1096,0.9314 -0.7126,0.2857 -3.21381,1.3687 -5.85965,2.5153 -5.15408,2.2295 -8.87941,3.8347 -9.87776,4.191 -0.4304,0.1552 -1.10773,0.4233 -1.89442,0.7373 -2.94569,1.1712 -5.31635,2.0814 -6.76627,2.2754 -1.22415,0.1623 -4.65315,0.3528 -8.67833,0.568 -1.3829,0.074 -2.58234,0.1375 -3.10092,0.1728 -1.61925,0.1164 -22.94821,0.7408 -25.73867,0.6103 -2.62114,-0.1235 -14.86958,-1.9544 -18.52437,-2.7093 l -0.11994,-0.025 c -2.98098,-0.6174 -11.33827,-2.346 -18.3515,-2.346 z m -91.7716,109.35406 c -3.13267,0 -5.47865,-1.2206 -6.46994,-3.45721 -1.26648,-2.8575 0.15169,-6.46641 3.61596,-9.20398 8.11038,-7.35893 17.10266,-15.7621 19.02883,-17.96343 -0.19754,-0.9243 -0.74083,-2.75167 -1.09008,-3.92642 -0.53975,-1.80975 -1.00187,-3.37256 -1.12887,-4.2545 -0.29282,-2.06023 0.74435,-4.26508 1.11828,-4.97417 l 14.95425,-41.73005 c 1.01249,-5.1647 7.10142,-7.7082 9.71902,-8.8018 0.27517,-0.1129 0.61738,-0.2576 0.71615,-0.307 1.77448,-0.9877 4.85775,-2.8716 5.588,-3.5136 0.0635,-0.2364 0.11642,-0.7691 0.15875,-1.1712 0.0917,-0.9243 0.20815,-2.0708 0.59973,-3.3832 0.94544,-3.1467 4.445,-4.2333 5.40454,-4.4732 5.39046,-2.2331 18.2598,-4.0075 18.81013,-4.0816 0.10229,-0.014 9.9836,-1.3512 17.72354,-1.9544 7.96925,-0.6244 18.29154,1.5134 22.17562,2.3177 l 0.11994,0.025 c 3.46427,0.7162 15.47283,2.5153 17.91052,2.6318 2.35656,0.1129 23.57615,-0.4834 25.26948,-0.6033 0.5574,-0.042 1.71098,-0.1023 3.175,-0.1799 2.86456,-0.1517 7.19667,-0.381 8.36435,-0.5362 1.0795,-0.1447 4.05342,-1.3265 5.83142,-2.032 0.81846,-0.3281 1.524,-0.6068 2.02496,-0.7867 0.94896,-0.3387 5.76437,-2.4236 9.63435,-4.0993 2.79048,-1.2065 5.19994,-2.2472 5.96194,-2.5541 0.37748,-0.1517 1.10066,-0.4798 1.94029,-0.8608 3.26319,-1.4852 8.19502,-3.7253 11.35237,-4.2333 4.30038,-0.6915 7.18963,5.207 9.67317,11.6875 0.14817,0.3916 0.27871,0.7267 0.3528,0.8996 1.15003,2.6811 -0.26813,5.1576 -1.4323,6.0854 -1.11125,0.889 -6.7592,3.1856 -6.81567,3.2067 -1.68275,0.6739 -10.20233,4.8649 -11.56758,5.6092 -1.00542,0.6209 -6.1736,6.0854 -8.06802,8.2973 -1.0795,1.2559 -4.82952,5.2388 -7.56708,8.1492 -1.0301,1.0936 -1.88383,1.9967 -2.32481,2.473 -1.69334,1.8238 -9.21809,7.7505 -11.16188,9.0452 -2.05316,1.3688 -7.88458,4.0605 -10.38579,5.147 -0.67379,0.2929 -1.83092,0.815 -3.16794,1.4182 -9.75431,4.4027 -10.98902,4.8189 -11.83216,4.8189 -2.00377,0 -2.92807,-2.0566 -3.53484,-3.5418 -0.80433,-0.046 -2.24366,0 -3.556,0.1305 l -0.11289,0.011 -38.72442,1.5769 c -3.01977,0.187 -8.20912,0.4762 -9.21102,0.3528 -0.62442,-0.081 -1.36525,-0.381 -2.72343,-0.9525 -0.78672,-0.3281 -2.286,-0.9561 -3.09388,-1.1571 -1.64394,1.5416 -5.63034,8.3608 -5.94077,9.9589 -0.0106,1.6192 2.54,10.70324 3.77118,15.08826 0.55034,1.96147 1.02659,3.6548 1.28059,4.64257 1.10773,4.33916 0.59973,8.67481 0.0317,11.96623 -0.65969,3.82762 -3.83469,10.07179 -5.7785,12.92225 -2.25425,3.30552 -6.54402,2.77987 -9.38387,2.43062 -0.37749,-0.0458 -0.7338,-0.0882 -1.05834,-0.11994 -0.72673,-0.0706 -2.23663,-0.27164 -4.15221,-0.52564 -4.90008,-0.64911 -13.09862,-1.73919 -16.13252,-1.65452 -3.36902,0.0952 -12.93283,1.7921 -18.06927,2.70227 -1.33704,0.23637 -2.43771,0.43391 -3.15735,0.55387 -3.6054,0.59971 -16.15371,2.64936 -16.28071,2.67052 -0.83254,0.14465 -1.62983,0.21519 -2.38477,0.21519"
       style="fill:#100f0d;fill-opacity:1;fill-rule:nonzero;stroke:none;stroke-width:0.0352777" />
  </g>
</svg>
