<?xml version="1.0" encoding="UTF-8" standalone="no"?>
<!-- Created with Inkscape (http://www.inkscape.org/) -->

<svg
   width="335.31226mm"
   height="128.19661mm"
   viewBox="0 0 335.31226 128.19661"
   version="1.1"
   id="svg1"
   inkscape:version="1.4.2 (ebf0e940, 2025-05-08)"
   sodipodi:docname="Miami.svg"
   xmlns:inkscape="http://www.inkscape.org/namespaces/inkscape"
   xmlns:sodipodi="http://sodipodi.sourceforge.net/DTD/sodipodi-0.dtd"
   xmlns="http://www.w3.org/2000/svg"
   xmlns:svg="http://www.w3.org/2000/svg">
  <sodipodi:namedview
     id="namedview1"
     pagecolor="#ffffff"
     bordercolor="#000000"
     borderopacity="0.25"
     inkscape:showpageshadow="2"
     inkscape:pageopacity="0.0"
     inkscape:pagecheckerboard="0"
     inkscape:deskcolor="#d1d1d1"
     inkscape:document-units="mm"
     inkscape:zoom="0.55067976"
     inkscape:cx="476.68358"
     inkscape:cy="242.42765"
     inkscape:window-width="1512"
     inkscape:window-height="836"
     inkscape:window-x="0"
     inkscape:window-y="34"
     inkscape:window-maximized="0"
     inkscape:current-layer="layer1" />
  <defs
     id="defs1" />
  <g
     inkscape:label="Layer 1"
     inkscape:groupmode="layer"
     id="layer1"
     transform="translate(121.97292,87.047932)">
    <path
       id="path140"
       d="m -4.4015732,21.424728 c 4.65666665,0 10.1670643,0.229288 12.5553522,1.217083 3.647731,1.509871 20.489333,8.353769 21.879295,8.875871 1.566333,0.585629 14.823705,4.589648 18.376186,4.928314 6.424083,0.613834 19.762602,1.30175 29.023018,0.01058 10.202333,-1.425231 25.100152,-6.208898 25.865662,-6.455834 1.38642,-0.500935 43.47282,-15.751518 51.45617,-19.201685 8.08215,-3.4889809 32.18746,-15.536333 32.43088,-15.6562687 l 0.0635,-0.03175 c 2.43768,-1.107731 3.88054,-2.3706666 3.95817,-3.457231 0.0811,-1.0900833 -1.2065,-2.5964353 -3.43959,-4.0357693 -1.03013,-0.663231 -2.18371,-1.245314 -3.429,-1.728628 -6.15598,-2.398872 -9.57088,-8.258519 -8.3044,-14.245167 1.07599,-5.097621 5.842,-10.075333 14.097,-9.708435 0.60677,0.02823 1.26294,0.09877 1.99674,0.211666 2.59995,0.409231 4.87185,0.47625 5.78553,0.169334 0.33163,-0.109353 0.6703,-0.215186 1.00897,-0.3175 1.8697,-0.5715 3.48191,-1.065398 5.18583,-3.167936 1.57692,-1.940295 3.98637,-6.021916 5.28108,-8.279712 l -2.10256,-0.913685 c -1.7286,-0.747898 -2.69523,-2.628186 -2.29659,-4.469686 l 3.20324,-14.837833 c 0.16226,-0.846667 0.11641,-1.471083 -0.12349,-1.763898 -0.14816,-0.179917 -0.68085,-0.599731 -2.40948,-0.599731 -1.38641,0 -2.95978,-0.0034 -4.52612,-0.0635 l -275.357161,-10.911416 -0.09877,-0.01402 c -2.614083,-0.363353 -4.233333,0.617352 -4.628462,1.679231 -0.483288,1.298204 0.589147,2.995083 2.797545,4.427352 l 13.215038,8.628935 c 6.755712,1.887379 13.197416,1.248834 19.681481,-1.954371 14.82725,-9.824878 30.857454,-11.761628 47.6496847,-5.753814 l 0.1728523,0.05998 0.1622954,0.09525 79.8724156,46.951185 0.03879,0.02823 c 4.120462,2.69875 6.131295,5.475102 6.148917,8.494871 0.01402,2.995083 -1.929686,5.757333 -5.944288,8.4455 l -0.162296,0.109379 -0.179916,0.0776 c -6.660436,2.7516667 -9.140455,6.9708977 -7.796371,13.2785378 l 0.02461,0.1199621 0.01058,0.1234546 c 0.66675,7.8069809 -2.434167,14.4885835 -8.967602,19.3251665 -6.417045,4.751917 -15.522231,7.179045 -25.30475,7.182564 -7.641166,0 -15.698628,-1.485185 -23.212795,-4.501435 l -0.127,-0.0494 -0.123454,-0.07056 -37.359167,-21.4912048 c -1.940269,-1.1147954 -5.041185,-3.01624992 -6.872102,-4.2580189 -8.607795,-5.8525832 -17.737666,-4.7695643 -27.915314,3.3090379 -2.832814,2.2471856 -6.19125,3.6688977 -9.7155,4.1098523 -7.090833,0.885481 -13.042185,-1.6404167 -17.691814,-7.5000379 -1.425204,-1.7956477 -2.991538,-3.2596666 -4.656667,-4.3568143 -7.619999,-5.0129543 -17.43427,-4.0216663 -26.24667,2.6599621 -4.25802,3.22791659 -6.71335,8.2338067 -6.56166,13.384371 0.15523,5.1858336 2.7305,7.4259806 8.33614,7.2636856 0.86077,-0.02461 1.74273,-0.109352 2.61409,-0.250455 10.428101,-1.703916 23.844248,1.407584 35.602331,4.459103 2.042584,0.532685 4.109853,0.889 6.148917,1.061852 3.245564,0.278712 8.311435,0.564462 13.998231,0.352795 9.902454,-0.373962 41.5960182,-0.92075 42.6719728,-0.938397 v 0 l 0.1093788,-0.0034 c 1.1959166,-0.02823 2.6211212,-0.05292 4.1310189,-0.05292 z M 64.619407,41.148515 c -8.170333,0 -15.405814,-0.656166 -16.584083,-0.765519 C 43.756112,39.973765 30.022491,35.733394 28.646657,35.21833 27.080324,34.629182 9.9106123,27.644182 6.6439077,26.29658 4.9046957,25.576913 -1.0113876,25.238247 -8.4303041,25.428747 c -0.1058334,0.0034 -0.1693334,0.0071 -0.1834357,0.0071 -0.2363523,0 -32.5261022,0.553853 -42.5520372,0.931334 -5.887879,0.22225 -11.126629,-0.07408 -14.485064,-0.359834 -2.257769,-0.194045 -4.547315,-0.589147 -6.801565,-1.17475 -11.370018,-2.95275 -24.306371,-5.969 -33.972504,-4.385045 -1.04775,0.169333 -2.10253,0.271648 -3.13618,0.299879 -0.21167,0.0071 -0.41982,0.01058 -0.62442,0.01058 -7.39068,0 -11.56758,-3.926417 -11.77925,-11.1089809 -0.18698,-6.4276022 2.85044,-12.6506021 8.128,-16.6511021 10.20585,-7.736417 21.720521,-8.787685 30.804567,-2.8116476 2.014352,1.326462 3.894666,3.076231 5.580935,5.2034809 3.785314,4.76953789 8.399648,6.7451022 14.107583,6.0325 2.801065,-0.34925 5.478648,-1.48521211 7.743481,-3.2843523 11.546417,-9.165167 22.514269,-10.336398 32.596666,-3.4819166 1.753288,1.1923712 4.741334,3.0232879 6.618103,4.1027878 L 20.857324,20.179493 c 15.899686,6.339416 34.208852,5.422185 44.562871,-2.240148 5.341064,-3.954621 7.895166,-9.3768333 7.390712,-15.6950832 -1.658064,-8.0292045 1.795621,-14.0934548 9.990666,-17.5506858 1.883834,-1.284102 4.042834,-3.167935 4.03225,-5.037666 -0.0071,-1.940269 -2.342462,-3.887602 -4.318,-5.185833 L 2.8868245,-72.336461 c -15.7409355,-5.580962 -30.1554355,-3.795897 -44.0584165,5.453936 l -0.102314,0.07056 -0.109352,0.05292 c -7.436565,3.704166 -15.151814,4.441454 -22.930564,2.187204 l -0.28575,-0.08112 -13.708936,-8.949981 c -4.596685,-2.980981 -5.259916,-6.6675 -4.346231,-9.119314 1.146546,-3.072686 4.663731,-4.766019 8.777129,-4.226269 l 275.17018,10.900833 c 1.48519,0.05998 3.01625,0.05998 4.37092,0.05998 2.5047,0.0034 4.34268,0.687917 5.45393,2.039038 1.03717,1.259417 1.35819,2.959815 0.9525,5.051796 l -0.007,0.03879 -3.21027,14.859 2.10608,0.92075 c 1.03011,0.448046 1.82386,1.315879 2.18017,2.38125 0.35277,1.065398 0.23635,2.236629 -0.32102,3.213815 -1.65454,2.885731 -3.97581,6.75923 -5.64091,8.808852 -2.46592,3.033897 -5.03415,3.820583 -7.0979,4.452064 -0.30692,0.09525 -0.61384,0.186981 -0.91369,0.289269 -2.00379,0.66675 -5.26346,0.359833 -7.64823,-0.01402 -0.58915,-0.09173 -1.10066,-0.148167 -1.56281,-0.165814 -6.34646,-0.289269 -9.37684,3.361981 -10.05417,6.57225 -0.72318,3.429 0.8114,7.771712 5.87375,9.747249 1.49225,0.582084 2.88221,1.284129 4.13105,2.088463 3.67593,2.367121 5.43983,4.938871 5.24578,7.6446851 -0.19402,2.6811022 -2.28952,4.9529999 -6.23003,6.7521666 -1.3829,0.69143558 -24.48984,12.2343333 -32.60022,15.7374163 -8.18443,3.534833 -49.93568,18.658417 -51.71016,19.300454 l -0.0635,0.02117 c -0.63852,0.208148 -15.804437,5.118814 -26.567687,6.621648 -4.180417,0.582083 -8.907647,0.776102 -13.359685,0.776102"
       style="fill:#100f0d;fill-opacity:1;fill-rule:nonzero;stroke:none;stroke-width:0.0352777" />
  </g>
</svg>
